<svg version="1" xmlns="http://www.w3.org/2000/svg" width="346.667" height="346.667" viewBox="0 0 260.000000 260.000000"><path d="M115.5.7c-1.1.2-5.6 1.1-10 1.9-47.1 8.7-86.7 44.8-100 90.9-4 13.8-5.3 24.4-5 39.5.5 23 6.5 44.5 17.9 63.5 12 20.1 33.3 39.7 53.7 49.6C84.2 252 99 256.7 111 258.5c11 1.7 31.8 1.2 43.4-.9 20.9-3.9 46.2-16.4 62-30.6 9.1-8.2 19.7-21.2 25.7-31.5 6.4-11 13.4-29.4 15.5-40.9 2.8-15.8 2.6-36.5-.5-50.8-6-26.7-15.7-45-34.5-64.5-9.6-10-19.9-17.5-33.6-24.6-13.9-7.1-20.4-9.3-37.2-12.8-5.2-1.1-32.3-2-36.3-1.2z"/></svg>