<svg xmlns="http://www.w3.org/2000/svg" width="177" height="177" viewBox="0 0 177 177" fill="none">
    <style>
        path {
            fill: #000;
        }

        @media (prefers-color-scheme: dark) {
            path {
                fill: #fff;
            }
        }
    </style>
    <path
        d="M18 65.5315V4.28516H69.7816C86.6069 15.7071 92.5884 28.7925 93.4757 33.9075L52.7429 34.4412C52.6541 41.1574 52.5299 55.604 52.7429 59.6604C52.9559 63.7168 73.0647 69.312 81.6285 70.8686C114.241 77.4069 128.751 80.7428 142.728 95.6876C156.705 110.632 158.701 132.782 141.264 153.198C127.313 169.53 103.415 173.791 93.2095 173.88H61.3951V143.716C73.6418 143.716 87.654 144.148 92.6769 143.724C124.627 141.025 133.844 109.241 80.9629 104.494C36.3698 100.491 21.3279 77.14 18 65.5315Z" />
    <path opacity="0.4" d="M18 173.88V84.3457C26.2531 96.0878 45.1553 105.695 52.6096 107.296V173.88H18Z" />
    <path opacity="0.4"
        d="M103.192 35.0076C101.196 23.6547 89.2154 8.44328 83.7578 4.17354C157.981 1.63795 162.187 63.1956 159.367 106.124C151.646 85.3084 133.543 76.2347 124.091 72.4987C123.24 43.4634 110.292 36.075 103.192 35.0076Z" />
</svg>