<svg width="214" height="257" viewBox="0 0 214 257" fill="none" {{ with .class }}class="{{ . }}"{{ end }}>
<path fill-rule="evenodd" clip-rule="evenodd" d="M194.647 64.9734C194.495 59.5833 186.656 57.3453 184.392 62.6836C184.251 62.8265 184.098 62.9639 183.955 63.087C184.664 62.4789 183.181 63.485 182.94 63.6094C182.734 63.7158 182.523 63.8118 182.312 63.911C180.856 50.2559 175.911 35.5353 163.132 28.6812C145.31 20.0376 124.716 18.3505 105.163 19.2092C95.2575 19.7969 83.8196 21.3809 75.0196 16.3694C72.2775 14.808 70.0794 12.3501 66.9808 11.385C57.1992 8.73868 52.7624 18.7841 54.0947 27.045C49.9225 27.0779 45.7837 29.388 43.9832 33.1914C42.9258 35.4425 42.9443 37.8716 42.0325 40.1307C39.235 45.8598 35.2323 49.9778 37.4953 56.9239C33.5151 61.4535 35.7844 68.3107 38.9961 72.6474C40.5821 74.903 42.4711 77.0684 43.633 79.593C44.7606 82.0104 43.0583 84.8772 42.1109 87.1688C35.107 103.778 35.5072 122.07 39.276 139.395C31.7132 142.677 29.4434 152.936 34.3751 159.396C36.072 161.68 38.142 162.527 40.4898 163.932C43.4608 165.567 41.0342 172.118 41.9856 175.281C43.2783 183.004 50.3092 187.76 57.2614 182.744C61.6729 182.077 65.2312 194.914 68.4348 198.136C70.4084 200.732 72.5997 203.063 74.9821 205.215C82.0807 223.481 118.455 232.744 136.439 231.687C155.272 229.715 167.977 213.72 178.556 199.524C183.988 191.96 187.521 183.494 188.806 174.26C190.097 164.98 189.532 155.683 188.66 146.392C186.827 126.651 183.935 98.2103 182.068 78.2561C188.816 77.7003 194.851 71.9546 194.647 64.9734V64.9734Z" fill="white"/>
<path fill-rule="evenodd" clip-rule="evenodd" d="M47.5434 53.1039C47.5371 53.1319 47.5466 53.153 47.5529 53.1828C47.5542 53.1742 47.5556 53.1697 47.5578 53.1593C47.5524 53.1368 47.5484 53.1219 47.5434 53.1039" fill="currentColor"/>
<path fill-rule="evenodd" clip-rule="evenodd" d="M47.5414 53.3911C47.5166 53.365 47.4814 53.3456 47.4463 53.3194C47.4454 53.3203 47.4449 53.3212 47.4445 53.3221C47.4774 53.3438 47.5089 53.3686 47.5414 53.3911" fill="currentColor"/>
<path fill-rule="evenodd" clip-rule="evenodd" d="M193.573 67.5244C195.79 65.6826 199.281 67.3784 198.531 70.4106C197.713 73.7128 194.175 75.9692 191.253 77.326C188.246 78.7219 185.317 78.991 182.036 78.8387L181.996 78.8297V78.8297C182.906 82.4821 183.423 86.2788 184.12 89.9533C185.004 94.6149 185.874 99.2789 186.731 103.945C187.56 108.455 188.607 112.971 189.244 117.504C189.887 122.08 190.503 126.658 191.134 131.235C192.187 138.88 193.037 146.559 193.933 154.225L194.36 157.854C195.258 165.535 195.981 173.225 194.28 180.868C192.685 188.031 189.094 194.713 184.929 200.693C180.849 206.548 176.292 212.178 171.29 217.271C161.641 227.093 149.742 234.96 135.79 236.419C129.783 237.047 123.367 236.348 117.719 234.165L117.344 234.018C111.627 231.761 104.626 227.895 103.138 221.553C102.224 217.662 106.233 214.624 109.748 216.47C111.377 217.326 112.601 218.303 113.938 219.529L114.175 219.748C115.268 220.763 115.688 221.075 116.949 221.868C119.535 223.495 121.473 224.265 124.41 225.004C129.824 226.367 135.668 226.151 141.165 224.54C152.836 221.12 161.889 212.195 169.645 203.246C173.857 198.387 177.854 193.289 180.937 187.625C184.172 181.683 185.665 175.444 185.575 168.683C185.474 161.054 184.42 153.395 183.728 145.803C183.023 138.062 182.371 130.324 181.797 122.572C181.259 115.303 181.207 108.001 181.019 100.709L180.982 99.342C180.872 95.4709 180.795 91.5985 180.707 87.7266C180.62 83.8659 180.314 79.9561 180.712 76.1117C180.74 75.8317 181.118 75.761 181.21 76.044C181.444 76.7643 181.649 77.4959 181.843 78.2315C181.873 78.209 181.906 78.1887 181.946 78.1747C184.517 77.2913 186.885 75.5275 188.814 73.6253C190.655 71.8101 191.616 69.1512 193.573 67.5244ZM52.9202 13.4351C54.5351 6.80188 61.8023 5.32027 67.176 8.51474C69.7608 10.0509 71.8304 12.2663 74.2448 14.027C76.6453 15.7777 79.2981 17.1836 82.0975 18.1766C87.6587 20.149 93.5251 20.8662 99.4027 20.8919C113.708 20.9545 127.721 16.9338 142.047 17.3823C153.133 17.7294 164.899 21.0059 172.94 29.0203C177.272 33.3375 180.063 38.8881 181.56 44.7807C182.26 47.5348 182.782 50.3556 183.193 53.1699L183.294 53.8733C183.524 55.5181 183.894 57.2593 183.928 58.9217C183.959 60.4146 183.581 61.9769 183.377 63.4544C182.945 66.5691 178.121 66.2144 177.428 63.4544C175.85 57.1705 176.511 50.6851 174.582 44.4228C172.871 38.8696 169.556 34.0141 164.753 30.6934C144.49 16.6841 118.504 28.4158 96.1784 27.3259C90.7217 27.0595 85.1848 26.2161 80.0377 24.337C77.3835 23.3679 74.7704 22.186 72.3641 20.6994C70.1593 19.3383 68.2492 17.6281 66.2083 16.0544L65.3079 15.37C63.9087 14.3173 61.5269 12.6713 60.1153 14.0639C59.501 14.6701 59.4638 16.0407 59.4751 17.0873L59.482 17.5604C59.546 22.0039 60.4515 26.4393 58.7888 30.7322C58.0303 32.6903 55.9224 33.9249 53.9176 32.816L53.814 32.7565C49.5733 30.2335 44.0017 35.3033 47.2594 39.4991L47.3608 39.626C49.1936 41.8536 48.2165 45.7766 44.9361 45.7668L44.8179 45.7647C38.9732 45.5822 36.3801 52.8874 41.4178 56.0794L41.5728 56.1748C45.663 58.6228 42.0754 64.5083 37.8834 62.4876C38.2385 62.6588 37.6211 62.6566 37.2677 63.1308C36.9283 63.586 36.9031 63.98 36.9838 64.5552C37.2285 66.2978 38.7609 67.7663 40.0021 68.8688C42.8217 71.3736 46.317 73.1032 49.9185 74.1561C64.3456 78.3743 79.1467 73.2145 93.2033 70.0985C107.858 66.8499 124.41 65.5414 137.19 74.7597C137.342 74.8688 137.209 75.1126 137.041 75.0153C127.869 69.6883 116.635 70.1611 106.609 72.345C93.4624 75.2091 80.4303 80.5401 66.9655 81.9446C70.7456 88.6184 72.3275 96.5007 71.318 104.134C70.6228 109.389 68.5318 113.947 66.062 118.566L65.5907 119.446C63.3887 123.592 61.683 127.509 61.6558 132.312C61.6292 137.084 54.5355 138.09 53.3331 133.439C50.6032 122.875 60.5484 114.555 64.6061 105.844C68.0742 98.3979 68.1811 89.716 65.3745 82.0916C62.2079 82.3463 59.0165 82.3729 55.793 82.0853C53.0243 81.8378 50.1759 81.3388 47.3995 80.5491L46.2888 85.2188C44.8174 91.4388 43.454 97.6547 43.0408 104.115C42.7366 108.863 42.7528 113.633 43.2157 118.369C43.6159 122.459 44.4605 126.403 45.32 130.397C46.0574 131.369 46.4341 132.858 46.2268 134.044C51.0133 135.423 54.778 139.2 56.1536 144.203C56.2374 144.507 55.811 144.679 55.6515 144.415C52.3879 138.999 43.9841 137.006 38.6681 140.584C33.5913 144 31.5888 150.896 34.4625 156.356C35.9741 159.226 38.2152 161.244 41.1049 162.633L41.686 162.906C43.2003 163.622 44.5904 164.403 45.5643 165.843C46.8277 167.71 46.8702 169.683 46.7508 171.817L46.6992 172.681C46.6194 174.111 46.6014 175.584 47.0273 176.959L47.124 177.265C47.2364 177.608 47.3545 177.911 47.5595 178.238C47.6208 178.336 48.1959 178.9 48.3834 179.104L48.6196 179.176V179.176L48.8837 179.186V179.186C49.1767 179.191 49.5618 179.064 49.4354 179.152L49.4698 179.132C49.581 179.063 49.6832 178.99 49.7694 178.925L49.933 178.797C50.3156 178.244 50.7952 177.787 51.3833 177.438L51.9454 177.188V177.188C53.4052 175.647 55.9066 176.457 56.9531 177.992C57.7063 179.097 58.1114 180.219 58.1448 181.327C58.2624 181.138 58.5238 181.035 58.6901 181.246L59.6824 182.511C63.4788 187.362 67.2099 192.244 71.5239 196.666C73.9005 199.103 76.4569 201.393 79.1291 203.502C81.4106 205.302 85.7383 207.035 85.8045 210.315C85.8252 211.38 85.0694 212.134 84.1446 212.495C81.1345 213.671 77.415 209.671 75.2409 207.725L75.0633 207.568C72.4024 205.237 69.974 202.679 67.7331 199.942C63.3806 194.628 59.7412 188.511 58.1371 181.781C58.0619 182.955 57.558 184.106 56.5772 185.192C55.2715 186.637 53.4845 187.651 51.5758 188.068C47.2513 189.013 43.0291 187.457 40.456 183.853C38.2812 180.806 37.6409 176.783 37.9215 173.103L37.956 172.661C37.9955 172.071 38.0457 170.987 38.1984 170.527L36.8368 169.779V169.779C35.1674 168.89 33.6202 167.726 32.2316 166.445C26.6505 161.3 23.8503 152.937 26.4017 145.619C27.9976 141.041 31.3513 137.058 35.6456 134.988C34.9279 133.329 34.6878 131.358 34.417 129.615L34.3715 129.327C33.9122 126.467 33.5278 123.572 33.3813 120.678C33.1073 115.274 33.4403 109.819 34.2895 104.477C35.6686 95.8003 38.5238 86.5986 43.7574 79.3199C39.7646 77.7342 36.0896 75.4385 33.2528 72.2508C30.2886 68.9198 28.3988 64.1508 30.691 59.9205C31.2752 58.8423 32.0364 57.9359 32.9112 57.216C31.3941 54.3511 30.9033 50.965 31.8394 47.7286C32.9581 43.8594 35.9954 40.8416 39.6646 39.4326C38.7735 35.7666 39.5019 31.8235 42.2246 28.7683C44.9252 25.7374 49.119 24.6336 53.0004 25.3264C53.2109 21.4274 51.9837 17.2805 52.9202 13.4351ZM42.0339 150.328C45.5926 148.586 49.8103 148.863 53.365 150.513L53.6059 150.628C57.4869 152.51 62.627 156.907 61.3934 161.584C60.6714 164.319 57.6327 165.253 55.2764 164.073C53.3082 163.086 52.8593 161.322 51.8718 159.551C51.1737 158.297 50.3106 157.318 49.297 156.311C47.1602 154.188 44.7602 152.611 42.0339 151.35C41.6408 151.167 41.6544 150.514 42.0339 150.328ZM131.703 55.792C131.369 55.6396 131.611 55.1172 131.947 55.2128C140.889 57.7667 149.227 63.4994 154.209 71.4564C154.513 71.9419 154.559 72.7411 154.209 73.2216L154.048 73.4397C153.819 73.738 153.594 73.9582 153.164 74.0248C152.357 74.1501 151.655 73.9396 151.19 73.2216C146.281 65.6373 139.993 59.5846 131.703 55.792ZM191.568 57.2942C192.326 56.0109 194.335 56.2692 194.735 57.708L194.792 57.8332C195.008 58.3237 194.91 58.4241 194.507 58.1466C195.504 58.9678 195.956 60.1912 195.651 61.5065C194.005 68.6103 185.959 73.683 178.946 72.9848C178.333 72.924 178.25 72.1717 178.805 71.9472C181.503 70.8546 183.898 69.08 185.824 66.9024C187.696 64.7857 188.483 62.3638 189.49 59.8076C189.868 58.8479 190.456 58.1569 191.284 57.7797C191.393 57.6282 191.489 57.4668 191.568 57.2942ZM151.682 52.7295L151.73 52.7326C155.334 53.1982 158.452 54.9768 160.982 57.5831C163.42 60.0929 166.496 64.2344 166.232 67.9174C166.058 70.3591 162.586 71.7551 161.291 69.2562C160.518 67.7651 160.343 66.1307 159.802 64.5539C159.305 63.1088 158.619 61.7367 157.798 60.4499C156.107 57.7985 153.782 55.5525 151.402 53.5259C151.123 53.2887 151.317 52.7307 151.682 52.7295V52.7295ZM59.2492 51.6468C58.4501 50.886 59.2812 49.5887 60.2976 49.8456C65.6578 51.2029 70.9662 52.8535 76.5391 53.0176C79.3227 53.0992 82.0905 52.8796 84.8479 52.5195L86.2439 52.3341C88.3942 52.0534 90.5814 51.833 92.7068 52.2747C94.1238 52.5691 94.4005 54.3946 93.5176 55.3471C89.3482 59.8451 81.3058 59.4151 75.7761 58.6569C69.7714 57.8329 63.7126 55.8992 59.2492 51.6468ZM156.044 37.6264C155.677 37.1175 156.295 36.3143 156.879 36.5401C162.206 38.5991 167.788 43.9599 169.256 49.5686C169.643 51.0502 167.775 52.169 166.678 51.0691C164.634 49.0196 163.191 46.5986 161.463 44.2948C159.741 41.9982 157.726 39.9586 156.044 37.6264ZM68.7639 40.1318C68.3366 39.7049 68.7666 38.8548 69.3804 39.072C72.8486 40.3003 76.3429 41.3632 79.9864 41.9208C83.7182 42.4914 87.4852 42.0578 91.2364 42.2891C92.7539 42.3824 93.7874 44.7434 92.1004 45.4781C84.6043 48.742 74.4229 45.7824 68.7639 40.1318ZM78.341 32.8102C77.7452 32.3694 78.0841 31.1596 78.8949 31.4972C82.1977 32.8724 85.5379 33.2105 89.0822 33.0689C90.3915 33.0162 90.6669 35.0739 89.3909 35.3515C85.473 36.2039 81.5428 35.1775 78.341 32.8102Z" fill="currentColor"/>
<path fill-rule="evenodd" clip-rule="evenodd" d="M138.391 192.572C135.361 191.336 132.658 189.274 130.682 186.64C129.995 185.725 129.816 184.758 129.961 183.873C130.123 182.879 130.711 181.978 131.513 181.373C132.318 180.767 133.324 180.468 134.298 180.62C135.143 180.753 135.985 181.216 136.651 182.176L136.791 182.368C137.966 183.958 139.497 185.262 141.241 186.103C142.923 186.913 144.803 187.292 146.75 187.072C150.456 186.653 153.011 184.648 155.726 181.926C156.063 181.582 156.4 181.228 156.738 180.867C156.952 180.541 157.248 180.331 157.578 180.221C157.943 180.099 158.357 180.106 158.736 180.238C159.101 180.365 159.428 180.607 159.647 180.929C159.855 181.234 159.973 181.612 159.935 182.046C159.686 184.868 158.211 187.386 156.116 189.363C153.789 191.558 150.705 193.078 147.802 193.61C144.602 194.197 141.343 193.777 138.391 192.572V192.572ZM149.311 149.049C152.714 151.118 157.9 155.942 154.238 161.071C149.929 165.594 143.724 160.409 140.666 158.063C137.831 156.246 134.645 160.92 137.276 163.043C159.371 179.403 168.338 149.59 151.032 146.616C149.127 146.289 148.419 148.409 149.311 149.049ZM109.716 130.018C110.092 125.35 117.201 124.29 117.908 128.909C118.541 133.047 117.796 136.848 115.932 140.574C114.151 144.133 109.676 142.472 109.337 139.231C108.884 134.887 109.482 132.922 109.716 130.018ZM163.83 127.951C164.821 126.652 166.252 125.766 167.967 126.267C173.323 127.832 171.744 135.438 169.863 139.14C168.841 141.15 165.537 141.66 164.044 139.89C161.61 137.003 160.444 131.239 163.538 128.395C163.622 128.248 163.715 128.1 163.83 127.951ZM115.856 109.591L116.702 109.443C119.32 108.99 122.575 108.555 124.426 110.66C125.408 111.776 125.746 113.85 124.426 114.919C122.104 116.798 119.537 116.07 116.754 116.229C114.461 116.361 112.257 116.74 110.048 117.372C105.202 118.757 101.254 121.286 97.115 124.062C96.5719 124.426 96.0175 123.732 96.2767 123.224C98.6659 118.544 103.296 114.699 107.934 112.356C110.409 111.105 113.118 110.067 115.856 109.591ZM158.946 107.495L159.594 107.627C166.642 109.101 175.798 112.044 179.136 118.967C179.263 119.946 179.129 120.156 179.019 120.293L178.983 120.339C178.893 120.456 178.821 120.617 178.397 120.75C178.279 120.722 178.16 120.692 178.04 120.661C176.51 120.26 175.3 119.708 174.128 119.134L172.857 118.508C171.383 117.786 169.896 117.089 168.32 116.575C164.957 115.478 161.498 114.705 157.985 114.292C157.223 114.203 156.49 113.946 155.912 113.505C155.363 113.087 154.943 112.509 154.752 111.739C154.504 110.743 154.576 109.99 155.11 109.091C155.511 108.417 156.086 107.949 156.746 107.681C157.419 107.407 158.185 107.342 158.946 107.495Z" fill="currentColor"/>
<path fill-rule="evenodd" clip-rule="evenodd" d="M197.211 137.29C192.914 166.359 162.917 169.573 157.588 140.715C158.443 140.341 159.059 139.603 158.93 138.172C158.9 131.883 160.852 125.236 166.524 121.739C172.386 118.13 179.246 117.772 186.03 117.863C198.975 117.555 198.703 128.376 197.211 137.29M152.893 124.648C148.83 124.477 143.691 124.62 140.051 127.096C139.051 124.401 136.451 121.524 133.824 119.986C143.587 120.271 153.637 119.31 163.473 118.564C161.119 120.17 158.928 122.581 157.505 125.369C156.184 124.664 154.292 124.73 152.893 124.648M134.985 140.372C123.719 179.153 95.5995 162.25 92.5338 157.28C87.0041 149.056 85.9639 129.063 90.7806 123.718C97.6755 118.884 107.436 120.128 115.581 120.009C130.545 120.211 141.173 124.688 134.985 140.372M210.513 122.536C207.452 122.136 204.181 122.055 201.335 123.403C200.459 119.678 197.709 116.564 194.603 115.194C194.227 114.722 194.283 114.469 192.999 114.54C185.114 112.17 176.291 113.424 168.713 115.854C156.746 116.862 144.191 117.657 132.124 119.046C120.819 113.968 86.7038 113.224 84.5837 125.738C81.9169 125.339 77.3751 123.24 75.1342 126.088C58.6966 123.301 41.7118 127.174 25.2029 128.899C21.0475 129.664 18.9071 137.912 23.6241 137.8C26.2761 137.08 23.5426 132.664 27.1135 132.331C43.0418 130.592 58.6218 128.123 74.7133 127.834C74.1535 130.613 85.3562 130.794 85.5216 129.171C85.5455 129.183 85.5707 129.192 85.5951 129.202C82.8268 139.52 85.3255 154.369 90.3284 160.767C97.3377 169.144 114.935 171.548 122.738 166.158C132.804 161.183 143.275 136.21 140.334 127.914C145.672 126.222 150.949 126.73 156.489 127.591C155.221 131.174 153.032 139.995 156.182 140.76C155.603 158.271 171.539 169.198 186.229 162.014C198.944 156.045 203.391 137.15 201.835 125.682C203.418 128.741 216.708 125.411 210.513 122.536" fill="currentColor"/>
</svg>
