<svg width="281" height="409" viewBox="0 0 281 409" fill="none" xmlns="http://www.w3.org/2000/svg">
<path fill-rule="evenodd" clip-rule="evenodd" d="M135.327 158.923C143.78 152.485 165.001 149.59 174.023 155.789C182.934 162.013 183.905 172.079 188.057 181.338C191.975 179.491 198.445 182.137 199.581 185.772C200.989 187.487 201.053 192.305 202.024 194.61C244.294 201.339 250.712 234.297 255.8 271.714C262.53 309.683 277.81 347.569 271.177 386.64C272.041 387.89 272.722 389.106 273.353 390.55C274.862 393.119 272.918 396.756 269.872 396.615C265.931 396.269 262.028 395.796 258.068 395.649C247.09 395.267 236.101 395.313 225.119 395.452L223.622 395.472C168.274 396.161 112.929 397.519 57.5784 397.879C55.5704 397.882 54.5873 396.081 54.8554 394.304C55.3954 390.727 55.8964 387.148 56.4193 383.57C43.3275 387.028 29.4098 387.898 16.355 383.933C15.4418 383.003 18.4829 383.507 18.9654 383.366C6.9509 375.155 10.5389 357.858 11.6032 345.4C18.2209 302.711 20.5539 255.479 46.1228 219.052C57.1843 204.186 73.4014 192.417 92.0361 189.768L92.5531 189.697C98.0018 188.971 104.074 188.737 108.838 185.772C114.196 181.494 116.48 173.59 122.117 173.516C123.978 173.492 126.51 175.847 129.235 177.446C129.438 173.928 131.334 170.96 131.752 168.233L131.786 168C132.223 164.82 131.625 161.959 135.327 158.923ZM226.169 272.842C214.29 264.589 183.604 268.736 182.902 269.198C181.355 270.216 180.689 270.305 179.852 271.627C179.026 271.736 178.201 271.85 177.377 271.967C175.722 272.508 176.948 274.542 178.859 273.816C177.71 278.773 181.092 282.299 182.438 287.199C182.876 288.79 182.454 291.652 182.438 293.278C182.569 295.351 184.861 297.799 184.479 299.879C183.121 307.272 175.752 314.485 178.859 321.655C180.917 325.705 187.107 327.77 191.222 329.146C199.748 332.419 214.604 329.023 219.558 321.655C222.2 317.725 225.262 307.811 226.837 304.736L227.186 299.858C228.048 287.733 228.814 274.679 226.169 272.842Z" fill="white"/>
<path fill-rule="evenodd" clip-rule="evenodd" d="M120.046 172.801C120.867 172.075 122.08 172.988 121.559 173.969C120.388 176.174 119.187 178.263 117.615 180.213C116.662 181.394 115.641 182.512 114.607 183.618C117.261 185.915 119.538 188.766 121.688 191.439C124.438 194.857 127.037 198.42 130.123 201.548C133.167 204.633 136.533 206.789 140.602 208.227L141.424 208.512C145.512 209.947 149.881 211.886 152.185 215.757C152.64 216.52 151.725 217.463 150.956 216.987C146.952 214.507 142.247 214.009 137.889 212.37C133.679 210.788 130.008 208.352 126.766 205.244C123.528 202.14 120.81 198.61 117.975 195.153C115.171 191.736 112.152 188.817 108.836 185.926C103.718 189.369 97.876 190.867 91.9358 192.339L91.2875 192.499C85.3401 193.972 79.4247 195.682 73.8451 198.247C68.9258 200.507 64.0873 203.207 60.0801 206.886C55.8265 210.79 52.5159 215.776 49.4857 220.652C42.7077 231.562 37.9424 243.514 33.7473 255.611C29.3841 268.194 25.7345 281.029 22.7882 294.016C21.2897 300.623 20.0727 307.276 19.0725 313.975C18.591 317.202 18.1633 320.436 17.7877 323.676C17.3867 327.137 17.2946 330.697 16.2331 334.025C15.778 335.451 14.7034 336.042 13.6279 335.992L13.4094 338.724C13.1197 342.368 12.8497 346.012 12.7584 349.678C12.6071 355.773 12.6757 361.851 13.1141 367.933L13.1762 368.762C13.5207 373.201 14.2905 378.189 17.6281 381.439C21.0846 384.806 26.4001 385.864 31.0589 385.925C41.9095 386.066 52.3542 380.939 61.956 376.441C71.8447 371.808 81.4632 366.666 90.8512 361.089C95.6322 358.249 100.362 355.315 105.031 352.294C107.322 350.812 109.597 349.304 111.855 347.773C113.148 346.895 114.374 345.933 115.69 345.155C115.045 344.554 114.757 343.61 115.298 342.785C111.491 339.481 109.907 333.585 109.722 328.814C109.573 324.963 110.139 321.123 110.586 317.308C110.812 315.384 111.091 313.464 111.38 311.549C111.495 310.792 111.582 309.983 111.715 309.185C101.438 314.833 90.8728 319.863 80.0277 324.332C74.4687 326.623 68.8385 328.682 63.1305 330.569L61.9736 330.95C56.5653 332.721 51.0276 334.393 45.4365 335.405C45.1375 335.46 44.8948 335.018 45.2139 334.877C50.6626 332.473 56.3001 330.445 61.8306 328.23L62.7394 327.86V327.86C62.635 327.854 62.5268 327.84 62.4138 327.813C59.1703 327.03 55.9522 325.824 52.771 324.808C49.8186 323.865 46.5014 323.273 43.7418 321.85C43.5295 321.74 43.6483 321.445 43.8551 321.431C46.9569 321.216 50.324 322.12 53.3651 322.652L54.5075 322.852C56.4214 323.189 58.3777 323.552 60.2822 324.025C60.351 323.387 60.7075 322.746 61.2146 322.371C66.7952 318.238 66.2285 309.89 66.8253 303.734L67.2679 299.164C68.0464 291.165 68.87 283.168 70.1212 275.229C70.188 274.805 70.8437 274.927 70.8465 275.327C70.911 285.168 70.1682 294.963 69.7959 304.789L69.7383 306.4C69.5324 312.463 69.3711 318.758 65.5532 323.423C66.087 323.111 66.8089 323.111 67.2414 323.626C67.7728 324.258 68.0796 324.968 68.0701 325.665C71.52 324.219 74.9549 322.735 78.3731 321.22C89.3627 316.351 100.122 310.902 110.596 305.006C111.724 304.371 112.795 304.87 113.353 305.707L113.433 305.695C113.446 305.693 113.46 305.692 113.474 305.692L113.554 305.688C113.557 305.688 113.56 305.689 113.563 305.689C115.037 304.878 117.046 305.455 118.311 306.637C118.349 306.673 118.38 306.711 118.414 306.749C120.016 306.03 121.511 305.059 122.869 303.828C125.646 301.311 127.999 298.197 130.05 295.075C133.828 289.325 137.036 282.931 142.139 278.198C146.285 274.352 151.425 271.958 156.817 270.455C156.794 270.298 156.855 270.13 156.963 270.018C157.24 269.734 157.438 269.636 157.796 269.808C157.824 269.822 157.841 269.841 157.853 269.862L158.379 268.963C158.666 268.475 158.961 267.983 159.064 267.854C159.676 267.083 160.306 266.318 160.946 265.569C162.03 264.301 163.266 263.05 164.697 262.17C167.83 260.245 171.124 261.335 174.345 262.387C176.291 263.023 178.231 263.679 180.174 264.325L180.375 264.39C181.823 264.856 183.519 265.263 184.167 266.798C184.423 267.406 184.463 268.036 184.343 268.648C198.104 265.148 213.387 266.756 226.815 270.864C227.33 271.022 227.845 271.446 227.953 272.003C229.492 279.893 230.177 287.986 229.481 296.011C228.88 302.938 227.345 309.727 224.453 316.069L224.289 316.427C221.571 322.305 217.263 329.55 210.684 331.392C206.711 332.505 202.318 331.849 198.266 331.645C194.328 331.447 190.303 331.418 186.403 330.799C182.929 330.248 179.886 328.69 177.739 325.866C175.887 323.429 174.912 320.483 174.113 317.554C173.748 317.67 173.384 317.794 173.027 317.934C171.518 318.523 170.239 319.475 169.083 320.594C166.642 322.958 164.748 325.83 162.194 328.086C159.882 330.129 157.247 331.717 154.421 332.938C148.565 335.469 142.283 336.48 136.089 337.821L135.657 337.915C130.994 338.939 126.234 340.195 122.118 342.623C122.037 343.338 121.712 344.011 121.19 344.451C121.916 345.133 122.223 346.213 121.585 347.226C119.803 350.054 116.734 351.663 113.978 353.472L113.799 353.59C111.088 355.387 108.354 357.149 105.598 358.875C99.9937 362.383 94.2728 365.699 88.471 368.869C79.1394 373.967 69.6076 378.777 59.9031 383.139C60.4856 386.005 60.2727 388.96 60.7105 391.845L60.7777 392.257C60.9647 393.327 60.7121 394.223 59.9746 394.923L59.8966 394.994L59.898 394.985L59.8288 395.048L59.8057 395.068L59.8134 395.062C59.7284 395.139 59.6407 395.212 59.5513 395.274L59.4374 395.347V395.347C58.7271 395.779 57.8127 395.774 57.0854 395.393L57.0024 395.347L56.8627 395.267C55.9018 394.714 55.2392 393.345 55.6378 392.257C56.6175 389.583 56.9877 386.729 57.8924 384.037L57.1746 384.358V384.358L56.2286 384.77C45.9976 389.195 34.6329 392.921 23.4854 389.905C18.5599 388.571 13.9562 385.752 11.4918 381.155C9.0667 376.633 8.72392 371.381 8.59517 366.351C8.43628 360.141 8.76912 353.837 9.58787 347.681C10.1375 343.549 10.8021 339.339 11.8274 335.25C11.3 334.784 10.9124 334.117 10.81 333.29C10.3262 329.384 11.173 325.324 11.6914 321.438C12.1979 317.644 12.7574 313.858 13.3902 310.083C14.6678 302.46 16.1522 294.853 17.8805 287.32C20.9562 273.912 25.0177 260.742 29.9076 247.888L30.3359 246.768C34.8544 235.018 40.0862 223.519 47.3712 213.197C50.8561 208.259 54.54 203.781 59.4641 200.223C64.0773 196.889 69.2809 194.488 74.6509 192.653C80.0267 190.817 85.5521 189.586 91.1751 188.821C96.8858 188.043 102.914 187.567 108.241 185.224C107.567 184.016 108.145 182.385 109.279 181.636C113.096 179.114 116.626 175.833 120.046 172.801ZM242.227 282.466C242.387 282.223 242.767 282.377 242.697 282.664C240.84 290.27 239.098 297.891 237.96 305.642C235.906 319.632 236.283 333.804 236.451 347.897L236.46 348.626C236.546 356.217 236.666 363.809 236.917 371.397C237.044 375.232 237.294 379.105 237.158 382.942C237.084 385.023 236.529 386.992 236.333 389.048C236.16 390.847 236.314 392.673 236.4 394.473C236.457 395.671 234.69 395.62 234.57 394.473L234.416 392.991C234.217 391.115 233.97 389.25 233.355 387.454C232.616 385.294 232.261 383.173 232.005 380.905C231.612 377.43 231.437 373.92 231.285 370.42L231.182 368C230.549 353.375 230.571 338.682 231.596 324.072L231.671 323.029C232.686 309.219 234.447 294.298 242.227 282.466ZM202.658 195.43C202.173 195.23 202.343 194.497 202.88 194.625L203.856 194.858C211.011 196.572 218.036 198.429 224.715 201.618C231.397 204.809 237.055 209.573 241.55 215.431C250.289 226.819 253.92 240.658 256.787 254.484C259.973 269.847 262.874 285.267 266.088 300.625L266.684 303.486C269.658 317.791 272.466 332.104 274.534 346.578L274.683 347.627C276.769 362.511 278.024 377.911 275.748 392.834C275.297 395.786 270.385 395.051 270.577 392.134C271.132 383.702 271.529 375.313 271.145 366.862C270.761 358.409 269.968 349.993 268.786 341.614C267.792 334.562 266.309 327.598 264.997 320.603L264.792 319.498C263.693 313.548 262.561 307.604 261.431 301.66L259.742 292.76C257.211 279.434 254.631 266.096 251.715 252.853L251.542 252.074C248.689 239.333 244.482 225.988 235.923 215.87C227.237 205.603 214.803 200.432 202.658 195.43ZM171.097 330.566C171.306 330.101 172.037 330.152 172.261 330.566C173.141 332.19 173.239 334.263 173.406 336.097L173.423 336.285C173.635 338.523 173.822 340.768 173.937 343.012C174.154 347.272 174.258 351.527 174.245 355.792C174.231 360.163 174.143 364.529 173.908 368.894L173.844 370.064C173.629 373.857 173.268 378.087 171.466 381.403C170.811 382.609 169.029 382.255 168.65 381.035C167.407 377.044 168.045 372.311 168.364 368.222L168.611 365.032C168.856 361.842 169.09 358.65 169.276 355.456C169.53 351.086 169.739 346.712 169.941 342.34C170.007 340.919 170.077 339.499 170.152 338.079L170.267 335.949C170.366 334.168 170.357 332.213 171.097 330.566ZM31.335 336.223L31.8853 335.692C33.5745 334.038 35.7091 331.492 38.2063 331.65C39.2021 331.713 39.8366 332.54 39.6301 333.52C39.1891 335.614 37.0527 336.701 35.5148 337.98C33.8301 339.38 32.2422 340.877 30.6574 342.388C29.2515 343.729 27.8994 345.107 26.5797 346.528L26.0864 347.063C25.6133 347.579 22.2448 350.626 22.609 351.417L22.6288 351.452C22.7302 351.604 22.5614 351.812 22.3932 351.759C20.9386 351.299 21.0294 350.052 21.5793 348.789C22.636 346.361 24.4865 344.116 26.1024 342.043C27.714 339.975 29.4583 338.049 31.335 336.223V336.223ZM176.368 275.349C175.243 272.69 171.099 272.746 168.747 272.905C162.823 273.305 156.413 274.804 151.142 277.573C145.678 280.444 141.997 285.044 138.703 290.131L138.549 290.37C135.338 295.36 132.247 301.268 127.22 304.7C124.659 306.448 121.67 308.044 118.563 308.736C118.35 309.111 118.004 309.408 117.551 309.515L117.341 309.564C116.456 309.759 115.081 309.975 113.894 309.846C113.902 310.427 113.896 311.003 113.911 311.553C113.952 313.13 113.97 314.714 113.97 316.292C113.971 319.599 113.793 322.912 113.931 326.218C114.053 329.142 114.466 332.198 115.87 334.812C116.9 336.73 118.259 337.999 119.9 339.211C123.936 336.751 128.499 335.251 133.131 334.124C138.732 332.761 144.468 331.851 149.942 330.002C152.576 329.112 155.109 327.947 157.404 326.365C159.84 324.686 161.7 322.413 163.615 320.19L163.914 319.845C165.867 317.604 167.999 315.46 170.76 314.245C173.137 313.199 176.271 313.012 178.35 311.393C179.437 310.546 179.528 309.316 179.642 308.058C178.311 308.248 176.901 307.943 175.574 307.787L174.887 307.707C173.632 307.558 172.406 307.394 171.171 307.074C170.942 307.015 170.942 306.669 171.171 306.61C172.631 306.233 174.078 306.072 175.574 305.897L175.926 305.853C177.28 305.675 178.703 305.407 180.031 305.705C180.27 304.799 180.614 303.933 181.097 303.066C181.774 301.848 183.057 300.466 183.23 299.043C183.282 298.618 183.183 298.117 182.982 297.742L182.913 297.614C182.829 297.462 182.729 297.31 182.584 297.216C182.567 297.235 182.533 297.256 182.459 297.28C181.437 297.602 180.545 297.101 180.072 296.33C178.063 296.579 175.87 296.496 173.986 296.579L172.081 296.671C170.046 296.764 167.918 296.805 166.005 296.394C165.738 296.337 165.657 295.892 165.925 295.778C168.276 294.772 171.129 294.451 173.646 294.065C175.052 293.849 176.468 293.684 177.879 293.494C178.817 293.367 179.814 293.158 180.787 293.108C183.226 290.071 181.912 285.281 178.517 283.973C177.281 284.517 176.169 284.201 174.818 284.085C173.469 283.969 172.117 283.89 170.764 283.896C168.05 283.908 165.175 284.622 162.489 284.315C162.052 284.264 161.646 283.683 162.08 283.328C164.137 281.65 167.084 281.102 169.695 280.745L170.236 280.672C171.111 280.558 172.175 280.39 173.279 280.29C173.529 279.803 173.977 279.435 174.65 279.344C174.85 279.316 175.051 279.3 175.251 279.283L175.248 279.263V279.263C176.889 279.185 176.818 276.413 176.368 275.349ZM64.0278 327.207C63.9988 327.252 63.9671 327.294 63.9333 327.335L63.8812 327.395L64.1511 327.286L64.0278 327.207V327.207ZM205.003 269.407C198.096 268.665 191.179 268.822 184.252 269.021C183.698 270.834 181.769 272.378 179.901 272.436C181.364 274.664 181.515 277.679 180.489 280.042C182.668 280.909 184.545 282.467 185.685 284.687C187.265 287.763 187.058 291.186 185.496 294.029C186.829 295.236 187.616 297.196 187.537 299.043C187.449 301.103 186.222 302.863 185.201 304.568C184.099 306.413 184.062 308.037 183.724 310.103C183.228 313.126 181.189 314.96 178.566 316.105L178.705 316.653C179.382 319.286 180.223 322.064 182.156 323.99C184.643 326.466 188.501 326.443 191.786 326.6L191.945 326.608C194.953 326.759 197.96 326.935 200.968 327.105L203.223 327.231C206.686 327.422 210.011 327.445 212.838 325.155C217.453 321.418 220.617 315.234 222.619 309.759C226.822 298.267 226.872 285.656 224.943 273.687C218.473 271.602 211.76 270.134 205.003 269.407ZM147.564 288.473L147.615 288.477C149.037 288.639 150.014 289.791 150.362 291.157C150.867 293.142 150.619 294.938 151.835 296.73C153.086 298.573 153.855 300.049 154.037 302.326C154.112 303.263 154.077 304.198 154.286 305.115L154.437 305.757C154.598 306.442 154.729 307.102 154.649 307.838C154.576 308.509 154.25 309.032 153.577 309.247C151.384 309.948 149.691 308.332 149.125 306.289C148.636 304.524 149.289 302.42 148.599 300.763C148.216 299.844 147.511 299.075 147.112 298.15C146.717 297.234 146.519 296.276 146.456 295.279C146.335 293.394 148.002 291.129 147.072 289.422C146.874 289.057 147.099 288.462 147.564 288.473ZM118.439 269.022C119.924 268.72 121.609 268.029 123.073 268.603C123.826 268.899 124.197 269.817 123.562 270.455C122.457 271.562 120.853 271.624 119.366 271.885L119.235 271.908C117.477 272.233 115.715 272.542 113.951 272.834C110.633 273.384 107.306 273.87 103.968 274.283C100.54 274.707 97.102 275.085 93.6592 275.369L92.3264 275.479C89.4182 275.711 86.3922 275.887 83.5387 275.441C83.124 275.377 83.1908 274.773 83.5387 274.667C86.6648 273.721 90.0938 273.467 93.3257 273.067C96.7616 272.64 100.192 272.19 103.613 271.656C107.029 271.122 110.44 270.55 113.839 269.917C115.375 269.631 116.908 269.333 118.439 269.022ZM172.014 265.983C170.711 265.522 169.278 264.839 167.866 265.067C165.431 265.462 163.264 267.834 161.337 269.396L162.305 269.208C167.256 268.257 173.813 267.231 177.969 270.38C177.98 270.362 177.988 270.343 178 270.325C178.336 269.816 178.724 269.418 179.149 268.982C179.189 268.944 179.228 268.904 179.267 268.864L179.496 268.62L178.972 268.439C177.851 268.043 176.522 267.531 176.312 267.456L176.298 267.451C174.868 266.967 173.437 266.488 172.014 265.983ZM131.333 162.191C131.129 159.57 135.208 159.592 135.41 162.191C135.851 167.866 134.574 173.487 131.826 178.462C131.805 178.498 131.783 178.53 131.762 178.564C133.481 179.459 135.219 180.317 136.997 181.084C139.27 182.066 141.586 182.959 143.944 183.718C146.077 184.404 148.704 184.675 150.497 186.103C154.278 189.114 152.857 195.363 152.13 199.413L152.017 200.052C151.654 202.137 151.392 204.275 152.271 206.275C153.209 208.412 155.107 209.997 156.799 211.526L157.141 211.836C158.641 213.202 160.354 214.862 161.454 216.714C162.458 214.638 163.827 212.941 165.274 211.031C166.306 209.668 165.571 209.219 164.83 207.888C164.116 206.606 163.767 205.24 163.99 203.778C164.402 201.078 166.56 199.128 168.708 197.662C171.244 195.932 174.075 194.651 176.697 193.042C182.085 189.735 187.332 185.955 192.059 181.757C192.189 181.641 192.415 181.793 192.311 181.952C188.577 187.632 184.198 192.541 178.817 196.707C176.635 198.396 174.343 199.798 172.035 201.271L171.372 201.697C170.445 202.297 169.29 203.099 168.871 204.121C168.449 205.149 169.348 205.925 169.832 206.776C171.368 209.48 170.627 212.002 168.806 214.295L168.721 214.401C166.911 216.632 165.539 218.706 164.883 221.556C163.473 227.679 165.437 234.056 167.492 239.803L167.573 240.03C168.685 243.128 169.867 246.203 170.833 249.351L171.099 250.221C171.974 253.117 172.691 255.973 171.709 258.951C171.375 259.963 169.994 260.203 169.42 259.25C167.397 255.889 166.892 251.844 165.624 248.149C164.388 244.547 162.969 241.011 161.775 237.395C160.237 232.739 159.208 227.728 159.767 222.844C159.75 222.816 159.732 222.789 159.718 222.759L159.327 221.903C158.26 219.584 157.229 217.559 155.288 215.712C153.263 213.784 151.066 212.077 149.473 209.744C146.013 204.675 148.153 199.036 148.571 193.494L148.619 192.814C148.695 191.663 148.736 190.099 147.985 189.303C147.139 188.406 145.156 188.178 144.035 187.781C141.136 186.755 138.279 185.559 135.558 184.124C132.968 182.757 130.459 181.247 128.123 179.479L126.939 178.588C125.07 177.178 123.133 175.639 121.881 173.72C121.737 173.499 121.982 173.143 122.244 173.249C124.334 174.097 126.244 175.446 128.199 176.62C128.23 176.549 128.265 176.476 128.305 176.404C130.725 172.024 131.72 167.172 131.333 162.191ZM198.101 192.196C198.934 189.912 202.729 190.089 202.578 192.802C202.462 194.887 201.577 196.769 200.768 198.662L200.681 198.865C199.846 200.837 198.881 202.689 197.726 204.496C195.52 207.952 192.935 211.158 190.175 214.185C187.673 216.929 184.388 218.606 180.603 218.328C179.009 218.21 177.399 217.804 176.001 217.008C174.342 216.061 172.539 213.219 170.421 213.907C170.217 213.974 170.026 213.674 170.203 213.532C172.647 211.563 175.422 214.616 177.762 215.351C181.289 216.459 184.908 215.234 187.178 212.383C189.548 209.406 191.729 206.073 193.721 202.831C194.733 201.185 195.656 199.477 196.453 197.716C197.257 195.939 197.44 194.008 198.101 192.196ZM192.416 178.141C192.314 177.825 192.705 177.525 192.982 177.705C194.589 178.751 195.981 180.133 197.462 181.344C199.106 182.688 200.762 184.005 202.444 185.301C204.896 187.191 202.052 190.67 199.894 188.606C196.941 185.781 193.707 182.088 192.416 178.141ZM183.597 167.086C184.249 164.569 188.109 165.607 187.547 168.094L187.528 168.17C186.463 172.279 187.98 176.461 191.219 179.125L191.338 179.222C193.388 180.862 190.484 183.729 188.456 182.104C184.026 178.559 182.184 172.537 183.597 167.086Z" fill="black"/>
<path fill-rule="evenodd" clip-rule="evenodd" d="M224.766 49.9052C224.651 45.81 218.695 44.1096 216.974 48.1655C216.867 48.274 216.751 48.3785 216.642 48.472C217.181 48.01 216.055 48.7744 215.871 48.8689C215.715 48.9497 215.554 49.0227 215.394 49.098C214.288 38.7233 210.531 27.5391 200.822 22.3316C187.281 15.7644 171.634 14.4826 156.779 15.135C149.253 15.5816 140.563 16.785 133.877 12.9774C131.794 11.7911 130.124 9.92368 127.769 9.19046C120.338 7.17984 116.967 14.812 117.979 21.0884C114.809 21.1134 111.665 22.8685 110.297 25.7583C109.493 27.4685 109.507 29.3141 108.815 31.0305C106.689 35.3833 103.648 38.512 105.367 43.7894C102.343 47.2309 104.068 52.4408 106.508 55.7357C107.713 57.4494 109.148 59.0946 110.031 61.0127C110.887 62.8494 109.594 65.0275 108.874 66.7686C103.553 79.3881 103.857 93.2857 106.72 106.449C100.974 108.942 99.2499 116.737 102.997 121.645C104.286 123.38 105.859 124.023 107.643 125.091C109.9 126.333 108.056 131.31 108.779 133.713C109.761 139.581 115.103 143.194 120.385 139.384C123.737 138.877 126.44 148.63 128.874 151.078C130.374 153.05 132.039 154.822 133.849 156.456C139.242 170.335 166.878 177.372 180.542 176.569C194.85 175.071 204.503 162.918 212.54 152.132C216.668 146.385 219.352 139.953 220.328 132.938C221.309 125.887 220.88 118.824 220.217 111.764C218.824 96.7658 216.627 75.1576 215.209 59.997C220.335 59.5747 224.921 55.2093 224.766 49.9052V49.9052Z" fill="white"/>
<path fill-rule="evenodd" clip-rule="evenodd" d="M113.001 40.8883C112.996 40.9096 113.003 40.9257 113.008 40.9483C113.009 40.9418 113.01 40.9383 113.011 40.9305C113.007 40.9133 113.004 40.902 113.001 40.8883" fill="#4F66AF"/>
<path fill-rule="evenodd" clip-rule="evenodd" d="M113.001 41.1067C112.982 41.0868 112.955 41.0721 112.929 41.0522C112.928 41.0529 112.928 41.0536 112.927 41.0543C112.952 41.0707 112.976 41.0895 113.001 41.1067" fill="#4F66AF"/>
<path fill-rule="evenodd" clip-rule="evenodd" d="M223.951 51.8431C225.635 50.4438 228.288 51.7322 227.717 54.0359C227.096 56.5448 224.408 58.2592 222.188 59.29C219.903 60.3507 217.678 60.5551 215.185 60.4394L215.155 60.4325V60.4325C215.847 63.2075 216.239 66.0921 216.768 68.8839C217.44 72.4257 218.101 75.9692 218.752 79.5144C219.382 82.9411 220.178 86.3722 220.662 89.8161C221.15 93.2924 221.618 96.7712 222.098 100.249C222.898 106.057 223.544 111.891 224.224 117.716L224.549 120.473C225.231 126.308 225.78 132.151 224.488 137.958C223.276 143.4 220.548 148.477 217.383 153.02C214.284 157.469 210.821 161.746 207.021 165.616C199.69 173.078 190.65 179.055 180.049 180.164C175.485 180.641 170.61 180.11 166.319 178.451L166.034 178.34C161.691 176.625 156.372 173.688 155.241 168.869C154.547 165.913 157.593 163.605 160.263 165.008C161.501 165.658 162.431 166.4 163.447 167.332L163.627 167.498C164.457 168.269 164.777 168.506 165.734 169.109C167.699 170.345 169.171 170.93 171.403 171.491C175.517 172.526 179.957 172.363 184.133 171.139C193 168.54 199.878 161.759 205.771 154.96C208.971 151.268 212.008 147.395 214.35 143.092C216.808 138.577 217.942 133.837 217.874 128.7C217.797 122.904 216.996 117.085 216.471 111.316C215.935 105.435 215.44 99.5561 215.004 93.6668C214.595 88.1438 214.555 82.596 214.413 77.0558L214.384 76.0171C214.301 73.076 214.242 70.1339 214.176 67.1921C214.11 64.2589 213.877 61.2883 214.179 58.3674C214.201 58.1548 214.488 58.101 214.557 58.3161C214.735 58.8633 214.891 59.4192 215.039 59.9781C215.061 59.9609 215.086 59.9455 215.117 59.9349C217.07 59.2637 218.869 57.9236 220.335 56.4784C221.733 55.0993 222.464 53.0791 223.951 51.8431ZM117.087 10.7481C118.314 5.7084 123.835 4.58271 127.918 7.00977C129.882 8.17689 131.454 9.86011 133.289 11.1978C135.112 12.5279 137.128 13.5961 139.255 14.3505C143.48 15.8492 147.937 16.394 152.403 16.4135C163.271 16.4611 173.918 13.4063 184.803 13.7471C193.225 14.0108 202.164 16.5002 208.274 22.5892C211.565 25.8694 213.686 30.0865 214.823 34.5635C215.355 36.6559 215.751 38.7991 216.064 40.9373L216.14 41.4718C216.315 42.7214 216.596 44.0444 216.622 45.3074C216.645 46.4416 216.359 47.6286 216.203 48.7512C215.875 51.1176 212.21 50.8481 211.684 48.7512C210.484 43.9769 210.986 39.0495 209.521 34.2916C208.221 30.0724 205.703 26.3834 202.054 23.8605C186.658 13.2166 166.915 22.13 149.953 21.3019C145.807 21.0995 141.6 20.4587 137.69 19.031C135.673 18.2947 133.688 17.3968 131.86 16.2673C130.184 15.2332 128.733 13.9338 127.183 12.7382L126.499 12.2182C125.436 11.4183 123.626 10.1678 122.553 11.2259C122.087 11.6864 122.058 12.7278 122.067 13.523L122.072 13.8824C122.121 17.2584 122.809 20.6283 121.546 23.8899C120.969 25.3776 119.368 26.3156 117.845 25.4731L117.766 25.4279C114.544 23.511 110.311 27.3629 112.786 30.5507L112.863 30.6471C114.255 32.3396 113.513 35.3201 111.021 35.3127L110.931 35.3111C106.49 35.1725 104.52 40.7227 108.348 43.1479L108.465 43.2204C111.573 45.0803 108.847 49.5519 105.662 48.0166C105.932 48.1468 105.463 48.145 105.195 48.5053C104.937 48.8512 104.918 49.1505 104.979 49.5875C105.165 50.9115 106.329 52.0272 107.272 52.8649C109.414 54.768 112.07 56.082 114.806 56.882C125.767 60.0868 137.013 56.1666 147.693 53.7992C158.827 51.331 171.402 50.3368 181.112 57.3406C181.227 57.4235 181.126 57.6087 180.999 57.5348C174.03 53.4875 165.495 53.8468 157.878 55.506C147.889 57.682 137.988 61.7324 127.758 62.7995C130.63 67.87 131.832 73.8587 131.065 79.6584C130.537 83.6507 128.948 87.1138 127.072 90.6231L126.713 91.2919C125.04 94.4419 123.744 97.4177 123.724 101.067C123.704 104.693 118.314 105.457 117.401 101.923C115.326 93.8974 122.882 87.5759 125.965 80.9577C128.6 75.3002 128.681 68.7039 126.549 62.9111C124.143 63.1046 121.719 63.1248 119.269 62.9063C117.166 62.7183 115.002 62.3392 112.892 61.7392L112.049 65.2871C110.931 70.0129 109.895 74.7355 109.581 79.644C109.35 83.2509 109.362 86.8755 109.714 90.4735C110.018 93.581 110.659 96.5779 111.312 99.6118C111.873 100.351 112.159 101.482 112.001 102.383C115.638 103.43 118.498 106.3 119.543 110.101C119.607 110.333 119.283 110.463 119.162 110.262C116.682 106.148 110.297 104.634 106.259 107.352C102.401 109.947 100.88 115.187 103.063 119.335C104.212 121.516 105.914 123.048 108.11 124.104L108.551 124.311C109.702 124.856 110.758 125.449 111.498 126.543C112.458 127.961 112.49 129.461 112.4 131.082L112.36 131.738C112.3 132.825 112.286 133.943 112.61 134.989L112.683 135.221C112.768 135.482 112.858 135.711 113.014 135.96C113.061 136.034 113.497 136.463 113.64 136.618L113.819 136.672V136.672L114.02 136.681V136.681C114.243 136.684 114.535 136.588 114.439 136.654L114.465 136.64C114.55 136.587 114.627 136.531 114.693 136.482L114.817 136.385C115.108 135.965 115.472 135.617 115.919 135.353L116.346 135.163V135.163C117.455 133.991 119.356 134.607 120.151 135.773C120.723 136.613 121.031 137.466 121.056 138.307C121.146 138.164 121.344 138.085 121.471 138.246L122.225 139.206C125.109 142.892 127.944 146.601 131.221 149.961C133.027 151.813 134.969 153.552 136.999 155.155C138.733 156.523 142.021 157.839 142.071 160.331C142.087 161.14 141.513 161.713 140.81 161.988C138.523 162.881 135.697 159.842 134.045 158.364L133.91 158.244C131.889 156.473 130.044 154.529 128.341 152.451C125.034 148.413 122.269 143.765 121.05 138.652C120.993 139.544 120.61 140.419 119.865 141.244C118.873 142.342 117.516 143.111 116.065 143.429C112.78 144.147 109.572 142.964 107.617 140.226C105.965 137.911 105.478 134.855 105.691 132.058L105.718 131.723C105.748 131.274 105.786 130.451 105.902 130.101L104.867 129.533V129.533C103.599 128.858 102.423 127.973 101.368 127.001C97.128 123.091 95.0005 116.737 96.939 111.177C98.1515 107.699 100.7 104.673 103.962 103.1C103.417 101.839 103.235 100.343 103.029 99.0182L102.994 98.7992C102.645 96.6266 102.353 94.4266 102.242 92.2279C102.034 88.1218 102.287 83.9772 102.932 79.9187C103.98 73.3266 106.149 66.3355 110.125 60.8053C107.092 59.6005 104.299 57.8563 102.144 55.4344C99.8921 52.9036 98.4563 49.2803 100.198 46.0663C100.642 45.2471 101.22 44.5584 101.885 44.0115C100.732 41.8348 100.359 39.2622 101.07 36.8033C101.92 33.8635 104.228 31.5707 107.016 30.5002C106.339 27.7149 106.892 24.719 108.961 22.3978C111.012 20.095 114.199 19.2563 117.148 19.7827C117.308 16.8204 116.375 13.6697 117.087 10.7481ZM108.816 114.755C111.52 113.432 114.724 113.642 117.425 114.896L117.608 114.983C120.556 116.413 124.462 119.754 123.524 123.307C122.976 125.385 120.667 126.095 118.877 125.198C117.382 124.448 117.041 123.108 116.29 121.762C115.76 120.81 115.104 120.066 114.334 119.3C112.711 117.688 110.887 116.49 108.816 115.531C108.517 115.393 108.527 114.896 108.816 114.755ZM176.943 42.9298C176.69 42.8141 176.874 42.4172 177.129 42.4898C183.923 44.4302 190.258 48.7857 194.043 54.8312C194.274 55.2001 194.309 55.8072 194.043 56.1723L193.92 56.338C193.747 56.5646 193.576 56.7319 193.249 56.7826C192.636 56.8778 192.102 56.7179 191.749 56.1723C188.02 50.41 183.242 45.8114 176.943 42.9298ZM222.426 44.0708C223.002 43.0958 224.528 43.292 224.832 44.3852L224.876 44.4803C225.04 44.853 224.965 44.9293 224.659 44.7184C225.417 45.3424 225.759 46.2718 225.528 47.2711C224.277 52.6684 218.165 56.5225 212.836 55.992C212.371 55.9458 212.307 55.3742 212.729 55.2037C214.779 54.3735 216.599 53.0253 218.062 51.3708C219.484 49.7626 220.082 47.9225 220.847 45.9804C221.134 45.2513 221.581 44.7263 222.21 44.4396C222.293 44.3246 222.366 44.202 222.426 44.0708ZM192.122 40.6023L192.159 40.6046C194.897 40.9584 197.266 42.3098 199.189 44.2899C201.04 46.1968 203.378 49.3433 203.177 52.1416C203.045 53.9968 200.407 55.0574 199.423 53.1587C198.836 52.0259 198.703 50.7841 198.291 49.5861C197.914 48.4882 197.393 47.4457 196.769 46.468C195.485 44.4536 193.718 42.7471 191.91 41.2074C191.698 41.0272 191.845 40.6033 192.122 40.6023V40.6023ZM121.895 39.7803C121.288 39.2023 121.919 38.2166 122.692 38.4118C126.764 39.443 130.797 40.6971 135.031 40.8218C137.146 40.8838 139.249 40.717 141.344 40.4434L142.405 40.3025C144.038 40.0892 145.7 39.9218 147.315 40.2574C148.392 40.481 148.602 41.868 147.931 42.5916C144.763 46.0091 138.653 45.6824 134.452 45.1064C129.889 44.4803 125.286 43.0112 121.895 39.7803ZM195.438 29.1282C195.159 28.7415 195.628 28.1313 196.072 28.3028C200.119 29.8672 204.361 33.9402 205.476 38.2015C205.77 39.3271 204.351 40.1771 203.517 39.3415C201.964 37.7843 200.868 35.9449 199.555 34.1946C198.246 32.4497 196.715 30.9001 195.438 29.1282ZM129.125 31.0312C128.8 30.7068 129.127 30.061 129.593 30.226C132.228 31.1592 134.883 31.9668 137.651 32.3904C140.487 32.824 143.349 32.4945 146.199 32.6702C147.352 32.7411 148.137 34.5349 146.855 35.0931C141.16 37.5729 133.424 35.3243 129.125 31.0312ZM136.401 25.4691C135.948 25.1342 136.206 24.215 136.822 24.4715C139.331 25.5164 141.869 25.7732 144.562 25.6657C145.556 25.6256 145.766 27.189 144.796 27.4C141.819 28.0476 138.833 27.2678 136.401 25.4691Z" fill="black"/>
<path fill-rule="evenodd" clip-rule="evenodd" d="M182.025 146.852C179.723 145.913 177.669 144.346 176.168 142.345C175.646 141.649 175.51 140.915 175.62 140.243C175.743 139.487 176.19 138.803 176.799 138.343C177.411 137.883 178.176 137.655 178.915 137.771C179.558 137.872 180.197 138.224 180.703 138.953L180.809 139.099C181.702 140.307 182.865 141.298 184.191 141.937C185.468 142.553 186.897 142.84 188.376 142.673C191.192 142.355 193.133 140.832 195.196 138.763C195.451 138.502 195.707 138.233 195.964 137.959C196.127 137.711 196.352 137.552 196.602 137.468C196.88 137.375 197.194 137.38 197.482 137.481C197.76 137.578 198.008 137.761 198.174 138.006C198.333 138.238 198.422 138.525 198.393 138.855C198.204 140.998 197.084 142.911 195.492 144.413C193.724 146.082 191.381 147.236 189.175 147.641C186.744 148.087 184.268 147.767 182.025 146.852V146.852ZM190.322 113.784C192.907 115.356 196.847 119.021 194.066 122.918C190.791 126.354 186.077 122.415 183.754 120.633C181.6 119.252 179.179 122.803 181.178 124.416C197.965 136.846 204.778 114.195 191.63 111.936C190.182 111.687 189.644 113.297 190.322 113.784ZM160.239 99.3246C160.524 95.7779 165.925 94.9725 166.463 98.4821C166.944 101.626 166.377 104.514 164.961 107.344C163.608 110.049 160.208 108.787 159.951 106.325C159.606 103.024 160.061 101.531 160.239 99.3246ZM201.352 97.7546C202.105 96.7683 203.192 96.095 204.495 96.4755C208.565 97.6649 207.365 103.443 205.936 106.256C205.159 107.783 202.649 108.171 201.514 106.826C199.665 104.633 198.78 100.253 201.131 98.0926C201.194 97.981 201.265 97.8683 201.352 97.7546ZM164.904 83.8055L165.547 83.6929C167.536 83.3489 170.009 83.0184 171.416 84.6174C172.162 85.4654 172.419 87.0414 171.416 87.8531C169.651 89.2811 167.701 88.7277 165.587 88.8486C163.844 88.9486 162.17 89.237 160.492 89.7168C156.81 90.7692 153.81 92.6904 150.665 94.8C150.253 95.0767 149.832 94.5489 150.028 94.163C151.844 90.6072 155.361 87.6863 158.885 85.9058C160.766 84.9555 162.824 84.1671 164.904 83.8055ZM197.642 82.2127L198.134 82.3134C203.489 83.4328 210.446 85.6689 212.982 90.929C213.078 91.6728 212.976 91.8322 212.893 91.9363L212.865 91.971C212.797 92.0599 212.742 92.1825 212.42 92.2837C212.331 92.2624 212.24 92.2399 212.149 92.2159C210.987 91.9113 210.067 91.4916 209.177 91.0562L208.212 90.5805C207.092 90.0314 205.962 89.5022 204.764 89.1115C202.209 88.2779 199.581 87.6908 196.912 87.3772C196.333 87.3093 195.776 87.1141 195.337 86.7794C194.92 86.4618 194.601 86.022 194.456 85.4374C194.267 84.6809 194.322 84.1081 194.727 83.4256C195.033 82.9131 195.469 82.5578 195.971 82.3538C196.482 82.1458 197.064 82.0968 197.642 82.2127Z" fill="black"/>
<path fill-rule="evenodd" clip-rule="evenodd" d="M226.714 104.85C223.449 126.935 200.659 129.378 196.61 107.452C197.26 107.168 197.727 106.608 197.629 105.52C197.606 100.742 199.09 95.6918 203.399 93.0346C207.853 90.2929 213.065 90.0209 218.219 90.0901C228.054 89.8559 227.847 98.0775 226.714 104.85M193.042 95.2449C189.955 95.1148 186.05 95.2237 183.285 97.1045C182.525 95.0573 180.55 92.8713 178.554 91.7025C185.972 91.9196 193.607 91.1895 201.08 90.6227C199.292 91.8422 197.627 93.6744 196.546 95.7926C195.542 95.2573 194.104 95.3073 193.042 95.2449M179.437 107.192C170.878 136.656 149.513 123.814 147.184 120.038C142.983 113.789 142.192 98.5992 145.852 94.5379C151.09 90.8653 158.506 91.8105 164.695 91.7204C176.064 91.8738 184.138 95.2752 179.437 107.192M236.82 93.6398C234.494 93.3357 232.009 93.2744 229.847 94.2983C229.182 91.4685 227.092 89.1028 224.732 88.0617C224.446 87.7035 224.489 87.511 223.514 87.5648C217.523 85.7641 210.819 86.7168 205.062 88.5634C195.97 89.3292 186.431 89.9329 177.262 90.9881C168.674 87.1305 142.754 86.5651 141.143 96.073C139.117 95.7699 135.666 94.1751 133.964 96.3384C121.475 94.2209 108.571 97.1638 96.0278 98.4744C92.8706 99.0559 91.2444 105.322 94.8282 105.237C96.8431 104.69 94.7663 101.335 97.4793 101.082C109.581 99.7603 121.418 97.885 133.644 97.6655C133.219 99.7768 141.73 99.9141 141.856 98.6812C141.874 98.6905 141.893 98.6966 141.912 98.7048C139.808 106.544 141.707 117.825 145.508 122.686C150.833 129.051 164.203 130.877 170.132 126.782C177.779 123.002 185.735 104.029 183.5 97.7257C187.556 96.4401 191.566 96.8261 195.775 97.4809C194.811 100.203 193.148 106.905 195.541 107.486C195.102 120.79 207.209 129.092 218.37 123.634C228.03 119.099 231.409 104.744 230.227 96.0302C231.429 98.3542 241.527 95.824 236.82 93.6398" fill="black"/>
</svg>
