<svg viewBox="0 0 24 30" class="i-sun">
  <path fill="currentColor" d="M12,7a5,5,0,1,0,5,5A5,5,0,0,0,12,7Zm0,8a3,3,0,1,1,3-3A3,3,0,0,1,12,15ZM11,5V3a1,1,0,0,1,2,0V5a1,1,0,0,1-2,0ZM4.93,6.34A1,1,0,0,1,6.34,4.93L7.76,6.34a1,1,0,0,1,0,1.42,1,1,0,0,1-1.42,0ZM5,13H3a1,1,0,0,1,0-2H5a1,1,0,0,1,0,2Zm2.76,3.24a1,1,0,0,1,0,1.42L6.34,19.07a1,1,0,0,1-1.41,0,1,1,0,0,1,0-1.41l1.41-1.42A1,1,0,0,1,7.76,16.24ZM13,19v2a1,1,0,0,1-2,0V19a1,1,0,0,1,2,0Zm6.07-1.34a1,1,0,0,1,0,1.41,1,1,0,0,1-1.41,0l-1.42-1.41a1,1,0,0,1,1.42-1.42ZM22,12a1,1,0,0,1-1,1H19a1,1,0,0,1,0-2h2A1,1,0,0,1,22,12ZM16.24,7.76a1,1,0,0,1,0-1.42l1.42-1.41a1,1,0,1,1,1.41,1.41L17.66,7.76a1,1,0,0,1-1.42,0Z" />
</svg>
